<svg width="575" height="132" viewBox="0 0 575 132" fill="none" xmlns="http://www.w3.org/2000/svg">
<path d="M245.947 62.1809C258.717 63.7285 268.555 67.4189 275.461 73.252C282.367 79.0852 285.82 86.4659 285.82 95.3941C285.82 106.346 280.869 114.917 270.965 121.108C261.193 127.179 248.358 130.214 232.46 130.214H178.905C176.299 130.214 174.996 129.5 174.996 128.072V127.536C174.996 126.703 176.169 125.453 178.514 123.786C180.86 122.119 182.033 120.096 182.033 117.715V15.9325C182.033 13.5516 180.86 11.5278 178.514 9.86123C176.169 8.19462 174.996 6.88514 174.996 5.93279V5.57566C174.996 4.14713 176.299 3.43286 178.905 3.43286H221.515C237.151 3.43286 249.53 6.34944 258.652 12.1826C267.773 18.0157 272.334 25.6345 272.334 35.039C272.334 41.8245 269.988 47.6576 265.297 52.5384C260.606 57.3002 254.156 60.5143 245.947 62.1809ZM199.819 16.8253L199.624 52.5384C199.624 54.5621 200.34 56.2288 201.774 57.5382C203.207 58.7287 205.031 59.3239 207.246 59.3239H227.574C236.174 59.3239 243.08 57.3002 248.292 53.2527C253.635 49.2052 256.306 44.0268 256.306 37.7175C256.306 29.2654 253.114 22.6584 246.729 17.8967C240.474 13.1349 231.939 10.7541 221.124 10.7541L205.683 10.9326C201.774 10.9326 199.819 12.8968 199.819 16.8253ZM230.897 122.893C242.494 122.893 251.485 120.81 257.87 116.643C264.385 112.477 267.643 106.287 267.643 98.0726C267.643 89.0253 263.668 81.5256 255.72 75.5734C247.901 69.6212 236.956 66.6451 222.883 66.6451H199.819V114.322C199.819 116.941 200.536 119.024 201.969 120.572C203.533 122.119 205.553 122.893 208.028 122.893H230.897ZM379.865 115.929C380.126 118.429 380.843 120.393 382.015 121.822C383.188 123.131 384.426 123.965 385.729 124.322C387.032 124.56 388.205 124.917 389.247 125.393C390.29 125.869 390.811 126.584 390.811 127.536C390.811 130.036 386.641 131.286 378.302 131.286C373.611 131.286 370.158 130.512 367.943 128.964C365.727 127.298 364.424 124.143 364.033 119.5C359.082 127.834 349.7 132 335.888 132C324.942 132 316.146 129.619 309.501 124.857C302.855 120.096 299.533 113.489 299.533 105.037C299.402 96.7036 302.66 90.2157 309.306 85.573C316.081 80.9303 324.747 78.609 335.301 78.609C345.726 78.609 353.739 80.9899 359.342 85.7516L358.952 80.9303C357.779 69.9783 355.368 61.8238 351.72 56.4668C348.071 51.1099 342.468 48.4314 334.91 48.4314C330.35 48.4314 326.571 49.5028 323.574 51.6456C320.577 53.7884 318.492 56.1097 317.319 58.6096C316.277 61.1096 314.974 63.4309 313.41 65.5737C311.846 67.7165 310.022 68.7879 307.937 68.7879C305.592 68.7879 303.702 68.1927 302.269 67.0022C300.966 65.8118 300.314 64.2047 300.314 62.1809C300.314 57.1811 303.507 52.717 309.892 48.7885C316.407 44.741 324.747 42.7173 334.91 42.7173C346.768 42.7173 356.215 46.0505 363.252 52.717C370.418 59.2644 374.653 68.4903 375.956 80.3946L379.865 115.929ZM340.188 126.286C346.573 126.286 351.785 124.441 355.824 120.75C359.864 116.941 361.753 112.239 361.492 106.644L360.711 98.6083C359.668 94.3228 357.192 90.8705 353.283 88.2515C349.504 85.6326 344.813 84.3231 339.21 84.3231C332.565 84.3231 327.157 86.0492 322.987 89.5015C318.818 92.9538 316.733 97.4179 316.733 102.894C316.733 109.56 318.883 115.155 323.183 119.679C327.613 124.084 333.282 126.286 340.188 126.286ZM479.326 106.822C481.802 106.822 482.584 108.072 481.672 110.572L476.395 126.465C475.482 128.964 473.919 130.214 471.704 130.214H399.97C398.928 130.214 398.016 129.917 397.234 129.322C396.452 128.607 396.061 127.834 396.061 127V125.929C396.061 125.215 396.908 123.607 398.602 121.108L456.654 49.8599H420.494C418.279 49.8599 416.129 50.7527 414.044 52.5384C412.089 54.3241 410.526 56.3478 409.353 58.6096C408.18 60.7524 406.811 62.7166 405.248 64.5023C403.814 66.288 402.381 67.1808 400.947 67.1808H400.166C397.56 67.1808 396.778 65.7523 397.82 62.8952L402.707 48.4314C403.749 45.8124 405.443 44.503 407.789 44.503H471.899C472.811 44.503 473.593 44.8006 474.245 45.3958C475.026 45.991 475.417 46.7648 475.417 47.7171V49.3242C475.417 50.2766 474.375 52.0027 472.29 54.5026L414.435 124.857H456.849C459.455 124.857 461.866 123.905 464.081 122C466.296 120.096 468.055 118.072 469.358 115.929C470.661 113.667 472.095 111.584 473.658 109.679C475.352 107.775 476.916 106.822 478.349 106.822H479.326ZM569.18 105.037C570.092 103.727 571.33 103.251 572.893 103.608C574.457 103.846 575.108 104.799 574.848 106.465C573.414 112.775 569.245 118.608 562.339 123.965C555.432 129.322 546.376 132 535.17 132C522.27 132 511.455 127.834 502.724 119.5C494.124 111.167 489.824 100.215 489.824 86.6444C489.824 74.1448 494.254 63.7285 503.115 55.3955C511.976 46.9433 522.921 42.7173 535.952 42.7173C547.028 42.7173 555.823 45.4553 562.339 50.9313C568.984 56.2883 572.307 62.3595 572.307 69.145C572.307 74.2639 569.245 77.7757 563.12 79.6804L508.975 95.9298C511.194 103.668 515.103 109.739 520.706 114.144C526.44 118.429 533.281 120.572 541.229 120.572C554.651 120.572 563.967 115.393 569.18 105.037ZM533.02 48.4314C525.202 48.4314 518.882 51.5265 514.061 57.7168C509.24 63.9071 506.829 71.6449 506.829 80.9303C506.829 84.5016 507.089 87.5373 507.607 90.0372L551.198 75.7519C554.325 74.5615 555.889 72.4782 555.889 69.5021C555.889 64.9785 553.608 60.3358 549.048 55.574C544.617 50.8123 539.275 48.4314 533.02 48.4314Z" fill="#0047A9"/>
<path d="M33.4702 12.5858C35.9287 12.5858 38.332 13.2329 40.3763 14.445C42.4204 15.6572 44.0137 17.3801 44.9545 19.3958C45.895 21.4115 46.1414 23.6297 45.6619 25.7696C45.1823 27.9095 43.9983 29.8753 42.2598 31.4178C40.5215 32.9608 38.3067 34.0112 35.8954 34.4368C33.4842 34.8627 30.9846 34.6443 28.7133 33.8094C26.442 32.9745 24.5007 31.5603 23.1348 29.7461C21.7689 27.932 21.0398 25.7992 21.0398 23.6174C21.0398 20.6916 22.3494 17.8858 24.6807 15.8169C27.0119 13.7481 30.1734 12.5858 33.4702 12.5858ZM33.4702 4.94971C29.3105 4.94971 25.244 6.04448 21.7853 8.09546C18.3265 10.1465 15.6308 13.0615 14.0389 16.4722C12.447 19.883 12.0305 23.6359 12.8421 27.2567C13.6536 30.8773 15.6567 34.2034 18.5981 36.8134C21.5395 39.4241 25.2873 41.2017 29.3669 41.9223C33.4469 42.6421 37.6757 42.2723 41.5189 40.8597C45.3624 39.4471 48.6466 37.0548 50.9577 33.985C53.2691 30.9156 54.5025 27.3067 54.5025 23.6151C54.5025 21.1639 53.9584 18.7368 52.9015 16.4722C51.8447 14.2076 50.2954 12.15 48.3423 10.4167C46.3891 8.68346 44.0706 7.30848 41.5189 6.37059C38.9672 5.43246 36.2323 4.94971 33.4702 4.94971ZM55.6983 53.566C36.5803 43.2977 11.8089 47.9242 3.83606 72.8138C-4.13682 97.7031 4.20897 128.954 4.20897 128.954H73.9737V104.94C73.9737 101.955 74.8138 63.8318 55.6983 53.566ZM13.4597 116.821C13.4597 116.821 8.78338 81.0499 19.4412 68.558C28.8486 57.5263 62.4681 54.2167 62.4681 90.9233C62.4681 107.232 62.5225 114.156 62.5849 116.821H13.4597Z" fill="#0047A9"/>
<path d="M82.5183 7.63229C84.9311 7.63229 87.2893 8.27911 89.2953 9.49064C91.3014 10.7022 92.8647 12.4243 93.7881 14.439C94.711 16.4537 94.9528 18.6708 94.4822 20.8097C94.0116 22.9485 92.8499 24.9132 91.1438 26.455C89.4377 27.9972 87.2645 29.0473 84.8981 29.4726C82.5317 29.8983 80.0794 29.68 77.8502 28.8455C75.6214 28.0108 73.7165 26.5975 72.3759 24.7844C71.0353 22.971 70.3203 20.8392 70.3203 18.6584C70.3203 15.7341 71.6053 12.9297 73.8931 10.8619C76.1805 8.79403 79.2832 7.63229 82.5183 7.63229ZM82.5183 0C78.4362 0 74.4458 1.09423 71.0518 3.14425C67.6574 5.19422 65.0123 8.10775 63.4499 11.5168C61.8879 14.9259 61.479 18.677 62.2756 22.296C63.0718 25.9148 65.0375 29.2393 67.924 31.848C70.8104 34.4575 74.4883 36.2341 78.4918 36.954C82.4953 37.6738 86.6455 37.3042 90.4167 35.8923C94.1883 34.4805 97.4113 32.0893 99.6791 29.021C101.947 25.9531 103.158 22.3461 103.158 18.6563C103.158 13.7084 100.983 8.96294 97.1126 5.46437C93.242 1.96552 87.9921 0 82.5183 0ZM133.226 60.4344C119.035 34.8118 80.7592 40.5763 70.7275 57.5078C60.0811 75.474 62.5326 93.848 62.5326 98.5695V128.964H137.113C137.113 128.964 147.42 86.0567 133.226 60.4344ZM128.042 116.899H73.9774V94.9484C73.9774 85.025 72.7575 62.245 90.3837 56.9304C108.01 51.6158 124.934 58.4871 128.233 82.0322C131.531 105.578 128.042 116.899 128.042 116.899Z" fill="#FFA436"/>
</svg>
